<svg width="156" height="108" viewBox="0 0 156 108" fill="none" xmlns="http://www.w3.org/2000/svg">
<path d="M131.04 46.9125C132.039 44.333 132.6 41.5125 132.6 38.5714C132.6 25.7946 122.119 15.4286 109.2 15.4286C104.398 15.4286 99.9131 16.875 96.2081 19.3339C89.4563 7.7625 76.8544 0 62.4 0C40.8525 0 23.4 17.2607 23.4 38.5714C23.4 39.2223 23.4244 39.8732 23.4487 40.5241C9.79875 45.2732 0 58.1464 0 73.2857C0 92.4509 15.7219 108 35.1 108H124.8C142.033 108 156 94.1866 156 77.1429C156 62.2205 145.275 49.7571 131.04 46.9125ZM95.8913 61.7143H79.95V88.7143C79.95 90.8357 78.195 92.5714 76.05 92.5714H64.35C62.205 92.5714 60.45 90.8357 60.45 88.7143V61.7143H44.5088C41.0231 61.7143 39.2925 57.5679 41.7544 55.133L67.4456 29.7241C68.9569 28.2295 71.4431 28.2295 72.9544 29.7241L98.6456 55.133C101.108 57.5679 99.3525 61.7143 95.8913 61.7143Z" fill="black"/>
</svg>
